<?xml version="1.0" standalone="no"?>
<!DOCTYPE svg PUBLIC "-//W3C//DTD SVG 20010904//EN"
 "http://www.w3.org/TR/2001/REC-SVG-20010904/DTD/svg10.dtd">
<svg version="1.0" xmlns="http://www.w3.org/2000/svg"
 width="852.000000pt" height="718.000000pt" viewBox="0 0 852.000000 718.000000"
 preserveAspectRatio="xMidYMid meet">

<g transform="translate(0.000000,718.000000) scale(0.100000,-0.100000)"
fill="#000000" stroke="none">
<path d="M6688 7058 l112 -113 -127 -127 -128 -128 406 -402 c223 -222 314
-313 202 -203 l-203 200 0 -242 c0 -146 -4 -253 -11 -270 -11 -31 -53 -78 -84
-96 -15 -9 -248 -13 -863 -17 l-842 -5 497 -497 498 -498 887 888 886 887
-135 238 -134 239 3 129 3 129 -540 0 -540 0 113 -112z"/>
<path d="M4121 5475 l-185 -186 202 -202 202 -202 387 388 388 387 -404 0
-404 0 -186 -185z"/>
<path d="M3698 5042 l-235 -237 -297 -530 c-163 -291 -300 -536 -304 -543 -6
-9 -45 8 -152 69 -79 44 -150 83 -158 86 -9 4 -133 -114 -361 -344 -292 -295
-355 -354 -404 -377 -85 -41 -151 -56 -250 -56 l-88 0 -156 -156 c-85 -86
-151 -159 -146 -163 4 -4 71 -66 148 -136 77 -71 150 -138 163 -149 l23 -20
567 567 c312 312 574 567 582 567 8 0 175 -161 373 -358 l359 -358 -54 -42
c-29 -22 -482 -473 -1006 -1001 l-954 -961 191 0 c105 0 191 -3 191 -8 0 -4
-143 -150 -319 -326 l-318 -318 -104 96 -104 96 -172 -173 c-105 -106 -173
-182 -173 -194 0 -10 6 -28 14 -39 14 -19 34 -19 813 -19 737 0 802 1 856 18
44 14 57 22 57 37 0 21 15 27 24 11 7 -10 56 9 56 22 0 4 5 7 10 7 6 0 134
124 285 275 l275 274 -68 20 c-37 11 -89 26 -117 34 l-50 14 -3 87 c-3 83 -2
86 22 97 45 21 56 63 56 215 l0 139 178 -178 c162 -162 181 -177 210 -175 26
2 53 24 149 120 l117 117 -17 38 c-13 29 -14 34 -2 19 8 -11 15 -23 15 -28 0
-24 42 14 274 246 l253 253 -388 109 -389 109 0 93 0 92 491 0 c317 0 497 4
510 10 40 22 49 61 49 212 l0 143 124 -124 123 -123 77 76 76 76 0 227 c0 124
3 224 6 221 3 -4 5 -104 4 -225 l-1 -218 251 253 c137 140 255 262 260 272 33
62 6 67 -460 74 -223 3 -406 6 -407 6 -2 0 -2 145 -1 323 1 177 4 258 5 180 3
-124 6 -142 21 -147 9 -2 102 -28 205 -57 l188 -53 207 207 207 207 -416 0
-416 0 -28 27 c-57 58 -59 68 -63 327 l-4 239 -297 -294 c-164 -162 -71 -69
206 206 277 275 503 502 503 505 0 3 -148 150 -328 327 l-329 321 -235 -236z
m370 -1558 c-96 -93 -128 -115 -128 -83 0 5 10 9 23 9 15 0 52 29 112 90 49
50 92 90 95 90 3 0 -43 -48 -102 -106z m-118 -117 c0 -1 -93 -94 -207 -207
l-208 -205 205 208 c190 192 210 212 210 204z m725 -657 c9 -16 13 -30 11 -30
-3 0 -12 14 -21 30 -9 17 -13 30 -11 30 3 0 12 -13 21 -30z m45 -80 c11 -22
18 -40 15 -40 -2 0 -14 18 -25 40 -11 22 -18 40 -15 40 2 0 14 -18 25 -40z
m45 -80 c9 -16 13 -30 11 -30 -3 0 -12 14 -21 30 -9 17 -13 30 -11 30 3 0 12
-13 21 -30z m-1635 -483 c0 -1 -28 -29 -62 -62 l-63 -60 60 63 c55 58 65 67
65 59z m-292 -285 c83 84 152 151 152 148 0 -3 -69 -74 -153 -158 l-152 -152
-155 157 -155 158 155 -152 155 -153 153 152z m357 -204 l16 -33 -20 25 c-20
24 -26 40 -16 40 2 0 12 -15 20 -32z m40 -68 c9 -16 13 -30 11 -30 -3 0 -12
14 -21 30 -9 17 -13 30 -11 30 3 0 12 -13 21 -30z m45 -80 c11 -22 18 -40 15
-40 -2 0 -14 18 -25 40 -11 22 -18 40 -15 40 2 0 14 -18 25 -40z m50 -90 c11
-22 18 -40 15 -40 -2 0 -14 18 -25 40 -11 22 -18 40 -15 40 2 0 14 -18 25 -40z
m45 -80 c9 -16 13 -30 11 -30 -3 0 -12 14 -21 30 -9 17 -13 30 -11 30 3 0 12
-13 21 -30z m-1025 -645 c82 82 150 155 150 162 0 7 5 13 12 13 7 0 37 24 68
52 30 29 -43 -46 -162 -167 l-218 -220 -217 220 -218 220 217 -215 218 -215
150 150z"/>
</g>
</svg>
